<svg width="60" height="59" viewBox="0 0 60 59" fill="none" xmlns="http://www.w3.org/2000/svg">
<path d="M18.0023 13.7044C21.9023 14.5758 25.9053 15.0182 29.9014 15.0182C33.8974 15.0182 37.9005 14.5766 41.7855 13.7075C42.181 13.6278 42.4506 13.2613 42.4092 12.8603C41.8504 7.50283 38.0349 3.10742 33.1737 1.71158V0.781545C33.1737 0.350132 32.8236 0 32.3922 0C31.9607 0 31.6106 0.350132 31.6106 0.781545V1.38099C31.0479 1.29815 30.4789 1.24188 29.899 1.24188C29.3207 1.24188 28.7533 1.29815 28.1913 1.38021V0.781545C28.1913 0.350132 27.8412 0 27.4098 0C26.9784 0 26.6283 0.350132 26.6283 0.781545V1.7108C21.7686 3.10586 17.9515 7.50205 17.3935 12.8603C17.3521 13.2542 17.6155 13.6176 18.0023 13.7044ZM26.6283 3.34892V5.76937C26.6283 6.20078 26.9784 6.55091 27.4098 6.55091C27.8412 6.55091 28.1913 6.20078 28.1913 5.76937V2.95659C28.7517 2.86202 29.3222 2.80418 29.9029 2.80418C30.4821 2.80418 31.051 2.86202 31.6106 2.9558V5.76858C31.6106 6.2 31.9607 6.55013 32.3922 6.55013C32.8236 6.55013 33.1737 6.2 33.1737 5.76858V3.34814C37.0244 4.62987 40.0552 8.08352 40.7602 12.3297C33.6317 13.8224 26.2 13.8271 19.041 12.3297C19.7468 8.0843 22.7768 4.63144 26.6283 3.34892ZM34.7399 11.4786C33.1549 11.8334 31.5262 12.0131 29.9006 12.0131C28.2765 12.0131 26.6486 11.8334 25.062 11.4786C24.6408 11.384 24.3758 10.9666 24.4696 10.5454C24.5642 10.1241 24.9847 9.86075 25.402 9.95298C28.3563 10.6126 31.4543 10.6118 34.3992 9.95298C34.8212 9.85997 35.2378 10.1241 35.3323 10.5454C35.4269 10.9666 35.1612 11.384 34.7399 11.4786ZM16.8683 17.2362C16.8832 16.729 16.9285 15.1846 18.0367 14.7665C19.1317 14.3539 20.2493 15.466 20.4619 15.6934C20.7565 16.0092 20.7401 16.5039 20.4251 16.7985C20.1094 17.0924 19.6147 17.0768 19.32 16.7618C19.1035 16.5328 18.7792 16.3038 18.6065 16.2507C18.5533 16.3515 18.4502 16.6297 18.4306 17.2831C18.3509 19.9958 20.4533 20.7274 20.4744 20.7352C20.7213 20.8172 20.9113 21.0173 20.9808 21.2682L21.0144 21.3909C21.0277 21.4378 21.0355 21.4862 21.0402 21.5347C21.6381 28.6593 27.2683 30.964 29.9014 30.964C32.5344 30.964 38.1646 28.6593 38.7625 21.5347C38.7664 21.487 38.775 21.4393 38.7875 21.3932L38.8211 21.2705C38.8899 21.0189 39.0806 20.818 39.3276 20.7352C39.4089 20.7063 41.4495 19.9583 41.3713 17.2831C41.3526 16.6305 41.2494 16.3531 41.1963 16.2514C41.0228 16.3062 40.689 16.5414 40.4819 16.7626C40.1873 17.0783 39.6926 17.094 39.3768 16.7993C39.0611 16.5047 39.0454 16.01 39.3401 15.6942C39.5519 15.466 40.6672 14.3531 41.7652 14.7673C42.8735 15.1862 42.9188 16.7298 42.9336 17.237C43.0134 19.9349 41.4315 21.4362 40.2858 22.02C39.505 29.2626 33.7856 32.5256 29.9014 32.5256C26.0163 32.5256 20.297 29.2634 19.517 22.0208C18.3712 21.4354 16.7886 19.9341 16.8683 17.2362ZM31.0956 17.0854C30.8674 17.0854 30.6509 17.1846 30.5024 17.3581C30.4625 17.405 30.4445 17.4628 30.4172 17.5168H29.3848C29.3574 17.4628 29.3394 17.405 29.2996 17.3581C29.1511 17.1854 28.9346 17.0854 28.7064 17.0854H22.5462C22.3368 17.0854 22.1359 17.1698 21.989 17.319C21.8421 17.4683 21.7616 17.6707 21.7647 17.8802C21.778 18.6109 21.903 21.0619 22.9777 21.9348C23.6631 22.4921 24.7338 22.8383 25.7725 22.8383C26.765 22.8383 27.5974 22.5241 28.1179 21.9536C28.6814 21.3362 29.0565 20.0412 29.2707 19.0791H30.5313C30.7454 20.0412 31.1206 21.3362 31.6841 21.9536C32.2054 22.5241 33.0385 22.8383 34.0303 22.8383C35.0682 22.8383 36.1389 22.4921 36.8251 21.9348C37.8989 21.0619 38.0247 18.6109 38.038 17.8802C38.0412 17.6707 37.9607 17.4683 37.8137 17.319C37.6668 17.1698 37.4659 17.0854 37.2565 17.0854H31.0956ZM26.9635 20.9001C26.7455 21.1392 26.3117 21.2752 25.7725 21.2752C25.098 21.2752 24.3712 21.0533 23.964 20.7219C23.6943 20.5031 23.4739 19.5785 23.3778 18.6477H27.7638C27.5614 19.5652 27.2574 20.5781 26.9635 20.9001ZM35.8388 20.7227C35.4316 21.0533 34.7047 21.276 34.0303 21.276C33.491 21.276 33.0565 21.1392 32.8384 20.9001C32.5453 20.5781 32.2405 19.5652 32.0389 18.6492H36.4249C36.3288 19.5793 36.1084 20.5031 35.8388 20.7227ZM55.3024 32.803C47.5151 35.3485 39.4268 36.7045 31.2339 36.8373V55.6656C31.2339 56.097 30.8838 56.4471 30.4524 56.4471C30.0209 56.4471 29.6708 56.097 29.6708 55.6656V39.6665C23.7154 39.6517 17.8116 38.9858 12.0282 37.6885C11.9665 37.683 11.9055 37.6697 11.8453 37.6486C9.38425 37.0906 6.94192 36.4309 4.53085 35.6439L4.97086 41.6892C5.00213 42.1198 4.67857 42.4942 4.24793 42.5254C4.2284 42.5262 4.20964 42.527 4.1901 42.527C3.7837 42.527 3.44138 42.2136 3.4109 41.8025L2.88648 34.5873C2.86773 34.3255 2.98105 34.0715 3.18894 33.9112C3.39683 33.7502 3.67115 33.7057 3.9189 33.7909C6.49488 34.6732 9.10915 35.404 11.7461 36.0175C13.4084 33.372 16.1087 31.3634 19.7913 30.0379L19.7428 29.2204C19.7171 28.7898 20.0461 28.4201 20.4767 28.3943C20.9034 28.3568 21.2778 28.6968 21.3028 29.1282L21.5037 32.5138L23.8389 31.6776C24.2477 31.5322 24.6932 31.7432 24.8385 32.1496C24.9839 32.556 24.7729 33.0039 24.3665 33.1492L21.0488 34.338C20.9628 34.3684 20.8737 34.3841 20.7854 34.3841C20.6346 34.3841 20.4838 34.3403 20.3548 34.2543C20.1493 34.1184 20.0203 33.894 20.0054 33.6486L19.8882 31.669C16.9449 32.7936 14.7871 34.3442 13.3592 36.3872C18.7151 37.5173 24.1726 38.0878 29.6716 38.1035V36.066C29.6716 35.6361 30.0178 35.2875 30.4477 35.2844C35.0635 35.2532 39.6449 34.8139 44.1607 33.998C43.0212 33.0844 41.605 32.2825 40.0161 31.662L39.8981 33.6486C39.8833 33.894 39.7543 34.1191 39.5488 34.2543C39.419 34.3395 39.269 34.3841 39.1181 34.3841C39.029 34.3841 38.9399 34.3684 38.8548 34.338L35.5379 33.1492C35.1315 33.0039 34.9205 32.556 35.0658 32.1496C35.2112 31.7432 35.6559 31.5307 36.0654 31.6776L38.3999 32.5138L38.6007 29.1282C38.6258 28.6968 38.9946 28.3576 39.4268 28.3943C39.8575 28.4201 40.1865 28.7898 40.1607 29.2204L40.1123 30.0332C42.5093 30.9039 44.6022 32.1614 46.0926 33.6275C49.4009 32.9453 52.6701 32.0598 55.8846 30.9593C56.1292 30.8765 56.4004 30.9187 56.6068 31.0735C56.8139 31.229 56.9303 31.4767 56.9178 31.7354L56.4215 42.2339C56.4012 42.6653 56.0394 42.9951 55.604 42.9779C55.1726 42.9576 54.8397 42.5911 54.86 42.1605L55.3024 32.803ZM59.0788 44.9474C58.3809 44.2464 57.2883 43.9049 55.7385 43.9049C54.1887 43.9049 53.0953 44.2464 52.3981 44.9474C51.465 45.8861 51.472 47.203 51.4783 48.3651L51.479 53.7891C51.479 56.1376 53.3899 58.0485 55.7385 58.0485C58.087 58.0485 59.9979 56.1376 59.9979 53.7891L59.9987 48.3651C60.0049 47.203 60.0127 45.8861 59.0788 44.9474ZM58.4364 48.3565L58.4356 53.7891C58.4356 55.2756 57.2258 56.4854 55.7393 56.4854C54.6435 56.4854 53.7025 55.8258 53.2805 54.8848H54.8725C55.3039 54.8848 55.6541 54.5347 55.6541 54.1032C55.6541 53.6718 55.3039 53.3217 54.8725 53.3217H53.0421V52.0024H54.8725C55.3039 52.0024 55.6541 51.6523 55.6541 51.2209C55.6541 50.7895 55.3039 50.4394 54.8725 50.4394H53.0414V49.0162H54.8725C55.3039 49.0162 55.6541 48.666 55.6541 48.2346C55.6541 47.8032 55.3039 47.4531 54.8725 47.4531H53.0554C53.0875 46.874 53.1891 46.3691 53.5064 46.0502C53.8901 45.6641 54.6412 45.468 55.7385 45.468C56.8358 45.468 57.5868 45.6633 57.9706 46.0502C58.4457 46.5269 58.4411 47.4156 58.4364 48.3565ZM4.54648 43.3906C2.88726 43.3906 1.72042 43.7532 0.97795 44.4996C-0.0130493 45.4961 -0.00523388 46.9068 0.00101848 48.151L0.00180002 54.0181C0.00180002 56.5237 2.04007 58.562 4.5457 58.562C7.05134 58.562 9.08961 56.5237 9.08961 54.0181L9.09039 48.1502C9.09742 46.906 9.10524 45.4953 8.11346 44.4996C7.37255 43.7532 6.20492 43.3906 4.54648 43.3906ZM4.54648 56.9989C2.9029 56.9989 1.56567 55.6616 1.56567 54.0181L1.56489 48.1424C1.55942 47.1115 1.55395 46.137 2.08618 45.6016C2.51369 45.1717 3.34134 44.9529 4.54648 44.9529C5.75163 44.9529 6.57928 45.171 7.00679 45.6016C7.37724 45.9736 7.48509 46.5598 7.51636 47.228H5.48356C5.05214 47.228 4.70201 47.5781 4.70201 48.0095C4.70201 48.4409 5.05214 48.7911 5.48356 48.7911H7.52808V50.4589H5.48356C5.05214 50.4589 4.70201 50.809 4.70201 51.2404C4.70201 51.6719 5.05214 52.022 5.48356 52.022H7.5273V53.5773H5.48356C5.05214 53.5773 4.70201 53.9274 4.70201 54.3588C4.70201 54.7902 5.05214 55.1404 5.48356 55.1404H7.30378C6.85986 56.2283 5.79305 56.9989 4.54648 56.9989Z" fill="white"/>
</svg>
