<svg width="48" height="47" viewBox="0 0 48 47" fill="none" xmlns="http://www.w3.org/2000/svg">
<rect x="0.922852" y="0.0161133" width="46.9635" height="46.9635" rx="23.4817" fill="#3A3C49"/>
<path d="M14.8557 31.4006L14.8556 31.4006L14.8526 31.4085C14.7277 31.7373 14.6542 32.061 14.6723 32.3849C14.6903 32.7057 14.7967 33.0031 14.9926 33.2865C15.2917 33.8835 15.9826 34.3065 16.6775 34.3065H23.1982C23.5294 34.3065 23.8665 34.5825 23.8665 35.1494C23.8665 35.434 23.7775 35.6408 23.6513 35.7737C23.5266 35.9049 23.3392 35.9924 23.0838 35.9924H16.5631C15.3355 35.9924 14.2961 35.3524 13.5486 34.2303C12.929 33.2493 12.8211 31.9271 13.2392 30.8245C14.3483 28.0244 16.5656 25.8114 19.1031 24.7662L19.6658 24.5344L19.1928 24.1514C17.7963 23.0206 16.9244 21.2002 16.9244 19.1337C16.9244 15.5825 19.7542 12.631 23.0838 12.631C26.54 12.631 29.3576 15.4747 29.3576 19.0132C29.3576 22.5644 26.5278 25.5159 23.1982 25.5159C19.4882 25.5159 16.2773 27.909 14.8557 31.4006ZM23.0838 14.3169C20.5791 14.3169 18.4898 16.5435 18.4898 19.1337C18.4898 21.7239 20.5791 23.9505 23.0838 23.9505C25.5885 23.9505 27.6778 21.7239 27.6778 19.1337C27.6778 16.5435 25.5885 14.3169 23.0838 14.3169Z" fill="#FEFEFE" stroke="#3D3F4C" stroke-width="0.722515"/>
<path d="M33.7997 25.832L33.805 25.8238L33.8098 25.8154C33.9326 25.6 34.105 25.4861 34.2854 25.4481C34.4647 25.4104 34.6777 25.4428 34.8877 25.5702C35.1579 25.7968 35.2897 26.3007 35.0087 26.908L29.4351 35.7684C29.2319 35.9737 28.9902 36.1129 28.8056 36.1129C28.5533 36.1129 28.3423 36.0309 28.1956 35.7994L28.1899 35.7903L28.1837 35.7816L25.3247 31.8091C25.3245 31.8089 25.3244 31.8087 25.3243 31.8084C25.2191 31.6604 25.1687 31.4285 25.2026 31.1792C25.2365 30.9291 25.3466 30.7242 25.4831 30.6164C25.6171 30.5106 25.8248 30.4606 26.0492 30.4944C26.2733 30.5281 26.463 30.6378 26.5666 30.7833L26.5666 30.7833L26.5682 30.7855L28.3986 33.3143L28.7087 33.7428L28.995 33.298L33.7997 25.832Z" fill="#FEFEFE" stroke="#3D3F4C" stroke-width="0.722515"/>
</svg>
