<svg width="48" height="46" viewBox="0 0 48 46" fill="none" xmlns="http://www.w3.org/2000/svg">
<rect x="0.919189" y="0.367188" width="46.2409" height="45.5184" rx="22.7592" fill="#3A3C49"/>
<path d="M27.853 26.8493C28.0339 26.6081 28.245 26.3969 28.4561 26.1858C28.6674 25.9745 28.8787 25.7631 29.0598 25.5216C29.5426 25.0388 30.2666 24.918 30.7493 25.4009L27.853 26.8493ZM27.853 26.8493C26.6462 28.0564 25.3187 29.1428 24.1119 29.9878L27.853 26.8493ZM34.4763 12.6199L34.4762 12.62L34.4837 12.6271C35.466 13.5551 35.9046 14.9714 35.7595 16.7561C35.6143 18.5426 34.8843 20.6632 33.5744 22.9264L33.4692 23.1081L33.575 23.2894C34.8245 25.432 35.5547 27.4931 35.7145 29.2658C35.8737 31.0314 35.4665 32.478 34.4848 33.4658C33.5899 34.2454 32.4715 34.6962 30.9907 34.6962C29.0296 34.6962 26.6815 33.8847 24.2978 32.4543L24.1119 32.3427L23.926 32.4543C21.5425 33.8847 19.1943 34.6962 17.2332 34.6962C15.7335 34.6962 14.5201 34.2353 13.764 33.3711L13.7527 33.3581L13.7402 33.3463C12.7576 32.4181 12.3194 31.0016 12.4643 29.2327C12.6094 27.4622 13.3388 25.3727 14.6474 23.1714L14.7561 22.9885L14.6489 22.8048C13.3977 20.6593 12.6381 18.5975 12.4638 16.8255C12.29 15.0575 12.6994 13.6133 13.7406 12.6267L13.7407 12.6268L13.7476 12.6199C14.7354 11.6319 16.1848 11.2218 17.955 11.3814C19.7271 11.5413 21.7878 12.2717 23.9298 13.5215L24.1075 13.6252L24.2874 13.5252C25.3804 12.9179 26.4362 12.3325 27.4846 11.983L27.4846 11.983L27.4885 11.9816C30.5723 10.9139 33.052 11.1953 34.4763 12.6199ZM33.2976 13.799L33.2892 13.7905L33.2801 13.7826C32.164 12.8057 30.3096 12.7362 27.9871 13.5882C27.7122 13.6597 27.4181 13.7924 27.1402 13.9241C27.0775 13.9538 27.0153 13.9836 26.9535 14.0132C26.723 14.1237 26.4977 14.2317 26.2706 14.3225L25.686 14.5564L26.183 14.9431C27.2707 15.7892 28.3397 16.6214 29.4078 17.6896C30.4757 18.7579 31.3077 19.8272 32.1537 20.915L32.5057 21.3676L32.762 20.8548C33.5006 19.3774 33.94 17.9453 34.0507 16.7276C34.16 15.5249 33.9534 14.4548 33.2976 13.799ZM14.9261 32.1745L14.9262 32.1745C15.575 32.8235 16.6064 33.0679 17.8047 32.9733C19.012 32.8779 20.4471 32.4363 21.9857 31.636L22.5279 31.354L22.0194 31.015C20.9617 30.3097 19.8947 29.3626 18.8161 28.2839C17.7481 27.2155 16.9161 26.1463 16.0702 25.0584L15.7183 24.6057L15.4619 25.1186C14.7233 26.5961 14.2839 28.0281 14.1732 29.2459C14.0639 30.4486 14.2705 31.5187 14.9261 32.1745ZM26.0623 31.0304L25.5939 31.3948L26.1327 31.6435C27.7242 32.3782 29.1835 32.8171 30.3998 32.9276C31.6048 33.0372 32.6431 32.8292 33.2977 32.1745C33.8396 31.6325 34.0889 30.8333 34.103 29.9103C34.1171 28.9846 33.8964 27.8975 33.4559 26.7226C32.5743 24.371 30.7913 21.6118 28.1055 18.9865L28.1056 18.9863L28.096 18.9775C26.7607 17.7633 25.4211 16.6665 24.1984 15.8105L23.9912 15.6654L23.784 15.8105C22.5613 16.6666 21.2175 17.7663 19.9947 18.9894L20.2502 19.2448L19.9947 18.9894L19.9896 18.9945C19.5096 19.4747 19.015 19.9693 18.5199 20.5884L18.5198 20.5883L18.513 20.5973C18.4025 20.7446 18.2007 20.8547 17.9683 20.8768C17.7397 20.8986 17.5206 20.8319 17.368 20.6793L17.368 20.6793C16.976 20.2873 16.9511 19.7965 17.2473 19.5002L17.2615 19.4861L17.2739 19.4705C17.5076 19.1784 17.7718 18.8845 18.0448 18.5812L18.0485 18.577C18.3105 18.2859 18.5805 17.9858 18.8234 17.684C19.9036 16.7236 20.9732 15.7736 22.0408 14.9431L22.4931 14.5912L21.9806 14.3348C20.2649 13.4768 18.5178 12.9689 17.2332 12.9689C16.2434 12.9689 15.3786 13.2101 14.9084 13.8169C14.3787 14.3586 14.1347 15.1505 14.1208 16.0651C14.1068 16.9925 14.3274 18.0832 14.7677 19.2653C15.6489 21.6312 17.4311 24.4198 20.1154 27.1047C21.3382 28.3278 22.6821 29.4276 23.9047 30.2837L24.1119 30.4288L24.3191 30.2837C25.5418 29.4276 26.8857 28.3278 28.1084 27.1047L28.1266 27.0866L28.142 27.0661C28.3051 26.8486 28.4977 26.6551 28.7119 26.4409L28.7194 26.4334C28.9198 26.233 29.1394 26.0133 29.332 25.7605C29.7212 25.3843 30.202 25.3644 30.4938 25.6563L30.4938 25.6564C30.8858 26.0483 30.9107 26.5392 30.6145 26.8353L30.5963 26.8535L30.5809 26.8741C30.2391 27.33 29.7792 27.7914 29.2946 28.2764C28.2092 29.2412 27.1348 30.196 26.0623 31.0304Z" fill="white" stroke="#3E404C" stroke-width="0.722515"/>
<path d="M25.6714 23.0161C25.6714 23.8807 24.9705 24.5815 24.1059 24.5815C23.2414 24.5815 22.5405 23.8807 22.5405 23.0161C22.5405 22.1516 23.2414 21.4506 24.1059 21.4506C24.9705 21.4506 25.6714 22.1515 25.6714 23.0161Z" fill="#FFF4F4" stroke="#3E404C" stroke-width="0.722515"/>
</svg>
