<svg width="45" height="44" viewBox="0 0 45 44" fill="none" xmlns="http://www.w3.org/2000/svg">
<rect x="0.911133" y="0.811523" width="43.3509" height="42.6284" rx="21.3142" fill="#3A3C49"/>
<path d="M16.9753 19.9497L16.9753 19.9497C17.3234 19.6203 17.8359 19.6192 18.1851 19.9465L22.3338 24.1032L22.6125 24.3824L22.8662 24.0803L29.9501 15.6433L30.169 15.3826L29.9217 15.1486C27.9052 13.2404 25.3752 12.1604 22.5895 12.1604C17.035 12.1604 12.4573 16.4643 12.4573 21.7677C12.4573 27.071 17.035 31.3749 22.5895 31.3749C28.144 31.3749 32.7217 27.071 32.7217 21.7677C32.7217 20.932 32.5969 19.9789 32.3448 19.137C32.3087 18.9476 32.3491 18.727 32.4582 18.5411C32.5688 18.3527 32.7324 18.2278 32.9162 18.1931C33.3468 18.1115 33.7933 18.3538 33.9778 18.7783C34.324 19.7661 34.4419 20.7598 34.4419 21.7677C34.4419 27.9063 29.1265 32.9639 22.5895 32.9639C16.0525 32.9639 10.7371 27.9063 10.7371 21.7677C10.7371 15.6291 16.0525 10.5714 22.5895 10.5714C25.6744 10.5714 28.7607 11.8086 30.8907 13.8242L31.1682 14.0868L31.4149 13.7951L33.8577 10.9057L33.5818 10.6725L33.8577 10.9057C34.2325 10.4624 34.7273 10.5202 34.9213 10.7037L34.9531 10.7338L34.9912 10.7555C35.1805 10.8629 35.2781 11.039 35.2986 11.2432C35.3199 11.4542 35.2548 11.676 35.1336 11.8312L23.1681 26.0423L23.1256 26.0928L23.1037 26.1551C23.08 26.2226 23.0351 26.2714 22.9541 26.3097C22.8652 26.3518 22.7396 26.3762 22.5895 26.3762C22.4299 26.3762 22.1582 26.2914 21.987 26.1321L16.9844 21.0519L16.9845 21.0518L16.9753 21.043C16.6373 20.7232 16.6373 20.2695 16.9753 19.9497Z" fill="white" stroke="#3D3E4B" stroke-width="0.722515"/>
</svg>
