<svg width="48" height="48" viewBox="0 0 48 48" fill="none" xmlns="http://www.w3.org/2000/svg">
<rect x="0.911133" y="0.460815" width="46.2409" height="46.9635" rx="23.1205" fill="#3A3C49"/>
<path d="M34.2241 24.7386C35.6214 24.7386 36.7541 23.7088 36.7541 22.4386C36.7541 21.1683 35.6214 20.1385 34.2241 20.1385C32.8268 20.1385 31.6941 21.1683 31.6941 22.4386C31.6941 23.7088 32.8268 24.7386 34.2241 24.7386Z" stroke="white" stroke-width="0.722515" stroke-miterlimit="10"/>
<path d="M30.4207 28.1818C30.438 27.2757 30.8462 26.412 31.5573 25.7769C32.2683 25.1417 33.2254 24.7859 34.2223 24.786C35.2282 24.7892 36.1918 25.1547 36.9019 25.8025C37.612 26.4503 38.0107 27.3275 38.0107 28.242" stroke="white" stroke-width="0.722515" stroke-miterlimit="10"/>
<path d="M13.9819 24.7386C15.3792 24.7386 16.5119 23.7088 16.5119 22.4386C16.5119 21.1683 15.3792 20.1385 13.9819 20.1385C12.5846 20.1385 11.4519 21.1683 11.4519 22.4386C11.4519 23.7088 12.5846 24.7386 13.9819 24.7386Z" stroke="white" stroke-width="0.722515" stroke-miterlimit="10"/>
<path d="M10.1943 28.1817C10.2117 27.2777 10.618 26.4158 11.3262 25.781C12.0344 25.1461 12.9881 24.7889 13.9827 24.7859C14.482 24.7859 14.9763 24.8753 15.4375 25.049C15.8988 25.2226 16.3179 25.4772 16.6709 25.7981C17.0239 26.1191 17.3039 26.5 17.495 26.9194C17.686 27.3387 17.7844 27.7881 17.7844 28.2419" stroke="white" stroke-width="0.722515" stroke-miterlimit="10"/>
<path d="M21.5704 12.0931L17.782 15.5371H32.9488" stroke="white" stroke-width="0.722515" stroke-miterlimit="10"/>
<path d="M26.6369 35.0824L30.4253 31.6263H15.2585" stroke="white" stroke-width="0.722515" stroke-miterlimit="10"/>
</svg>
