<svg width="60" height="60" viewBox="0 0 60 60" fill="none" xmlns="http://www.w3.org/2000/svg">
<g style="mix-blend-mode:plus-lighter">
<path d="M25.266 33.04C24.8993 33.04 24.5993 33.34 24.5993 33.7067V46.3734H20.666C20.2993 46.3734 19.9993 46.6734 19.9993 47.04V53.7867C18.666 54.0934 17.666 55.28 17.666 56.7067C17.666 58.36 19.0127 59.7067 20.666 59.7067C22.3193 59.7067 23.666 58.36 23.666 56.7067C23.666 55.28 22.666 54.0934 21.3327 53.7867V47.7067H25.266C25.6327 47.7067 25.9327 47.4067 25.9327 47.04V33.7067C25.9327 33.34 25.6327 33.04 25.266 33.04ZM22.3327 56.7067C22.3327 57.1487 22.1571 57.5727 21.8445 57.8852C21.532 58.1978 21.108 58.3734 20.666 58.3734C20.224 58.3734 19.8001 58.1978 19.4875 57.8852C19.1749 57.5727 18.9993 57.1487 18.9993 56.7067C18.9993 56.2647 19.1749 55.8408 19.4875 55.5282C19.8001 55.2156 20.224 55.04 20.666 55.04C21.108 55.04 21.532 55.2156 21.8445 55.5282C22.1571 55.8408 22.3327 56.2647 22.3327 56.7067Z" fill="#F8FBFA"/>
<path d="M12 53.7867V43.7067H20.6667C21.0333 43.7067 21.3333 43.4067 21.3333 43.04V33.7067C21.3333 33.34 21.0333 33.04 20.6667 33.04C20.3 33.04 20 33.34 20 33.7067V42.3734H5.92C5.61333 41.04 4.42667 40.04 3 40.04C1.34667 40.04 0 41.3867 0 43.04C0 44.6934 1.34667 46.04 3 46.04C4.42667 46.04 5.61333 45.04 5.92 43.7067H10.6667V53.7867C9.33333 54.0934 8.33333 55.28 8.33333 56.7067C8.33333 58.36 9.68 59.7067 11.3333 59.7067C12.9867 59.7067 14.3333 58.36 14.3333 56.7067C14.3333 55.28 13.3333 54.0934 12 53.7867ZM3 44.7067C2.55797 44.7067 2.13405 44.5311 1.82149 44.2186C1.50893 43.906 1.33333 43.4821 1.33333 43.04C1.33333 42.598 1.50893 42.1741 1.82149 41.8615C2.13405 41.549 2.55797 41.3734 3 41.3734C3.44203 41.3734 3.86595 41.549 4.17851 41.8615C4.49107 42.1741 4.66667 42.598 4.66667 43.04C4.66667 43.4821 4.49107 43.906 4.17851 44.2186C3.86595 44.5311 3.44203 44.7067 3 44.7067ZM11.3333 58.3734C10.8913 58.3734 10.4674 58.1978 10.1548 57.8852C9.84226 57.5727 9.66667 57.1487 9.66667 56.7067C9.66667 56.2647 9.84226 55.8408 10.1548 55.5282C10.4674 55.2156 10.8913 55.04 11.3333 55.04C11.7754 55.04 12.1993 55.2156 12.5118 55.5282C12.8244 55.8408 13 56.2647 13 56.7067C13 57.1487 12.8244 57.5727 12.5118 57.8852C12.1993 58.1978 11.7754 58.3734 11.3333 58.3734Z" fill="#F8FBFA"/>
<path d="M57.0003 40.04C55.5737 40.04 54.387 41.04 54.0803 42.3733H47.3337V38.3733H49.907C55.4737 38.3733 60.0003 33.8867 60.0003 28.3733C60.0003 24.3 57.527 20.8 53.9937 19.24C53.9203 9.68 45.967 1 36.9003 1C31.0137 1 25.5203 4.04 22.407 8.96667C20.8438 7.71712 18.9015 7.03756 16.9003 7.04C11.827 7.04 8.03366 12.3867 8.00033 17.0933C3.72033 18.6667 0.666992 22.6733 0.666992 27.3733C0.666992 33.1533 5.28033 37.8933 11.1203 38.3333C11.187 38.36 11.2603 38.3733 11.3337 38.3733H16.027C16.3937 38.3733 16.6937 38.0733 16.6937 37.7067C16.6937 37.34 16.3937 37.04 16.027 37.04H12.0003C6.48699 37.04 2.00033 32.7067 2.00033 27.3733C2.00033 22.04 6.48699 17.7067 12.0003 17.7067C12.367 17.7067 12.667 17.4067 12.667 17.04C12.667 16.6733 12.367 16.3733 12.0003 16.3733C11.087 16.3733 10.207 16.4867 9.35366 16.6867C9.59366 11.96 13.4403 8.37333 16.9003 8.37333C18.8937 8.37333 20.7737 9.14667 22.1937 10.5533C22.4537 10.8133 22.8803 10.8133 23.1337 10.5533C23.2803 10.4067 23.3337 10.2067 23.3137 10.02C26.147 5.28 31.3337 2.34 36.8937 2.34C45.1003 2.34 52.3137 10.1067 52.647 18.7667C51.7737 18.52 50.8537 18.38 49.9003 18.38C49.5337 18.38 49.2337 18.68 49.2337 19.0467C49.2337 19.4133 49.5337 19.7133 49.9003 19.7133C54.7337 19.7133 58.6603 23.6 58.6603 28.38C58.6603 33.16 54.727 37.0467 49.9003 37.0467H43.9937C43.627 37.0467 43.327 37.3467 43.327 37.7133C43.327 38.08 43.627 38.38 43.9937 38.38H45.9937V43.0467C45.9937 43.4133 46.2937 43.7133 46.6603 43.7133H54.0737C54.3803 45.0467 55.567 46.0467 56.9937 46.0467C58.647 46.0467 59.9937 44.7 59.9937 43.0467C59.9937 41.3933 58.647 40.0467 56.9937 40.0467L57.0003 40.04ZM57.0003 44.7067C56.5583 44.7067 56.1344 44.5311 55.8218 44.2185C55.5093 43.906 55.3337 43.482 55.3337 43.04C55.3337 42.598 55.5093 42.174 55.8218 41.8615C56.1344 41.5489 56.5583 41.3733 57.0003 41.3733C57.4424 41.3733 57.8663 41.5489 58.1788 41.8615C58.4914 42.174 58.667 42.598 58.667 43.04C58.667 43.482 58.4914 43.906 58.1788 44.2185C57.8663 44.5311 57.4424 44.7067 57.0003 44.7067Z" fill="#F8FBFA"/>
<path d="M30.6667 53.7867V33.7067C30.6667 33.34 30.3667 33.04 30 33.04C29.6333 33.04 29.3333 33.34 29.3333 33.7067V53.7867C28 54.0934 27 55.28 27 56.7067C27 58.36 28.3467 59.7067 30 59.7067C31.6533 59.7067 33 58.36 33 56.7067C33 55.28 32 54.0934 30.6667 53.7867ZM30 58.3734C29.558 58.3734 29.134 58.1978 28.8215 57.8852C28.5089 57.5727 28.3333 57.1487 28.3333 56.7067C28.3333 56.2647 28.5089 55.8408 28.8215 55.5282C29.134 55.2156 29.558 55.04 30 55.04C30.442 55.04 30.866 55.2156 31.1785 55.5282C31.4911 55.8408 31.6667 56.2647 31.6667 56.7067C31.6667 57.1487 31.4911 57.5727 31.1785 57.8852C30.866 58.1978 30.442 58.3734 30 58.3734ZM40 53.7867V49.7067C40 49.4667 39.8733 49.2467 39.6667 49.1267L35.3333 46.6534V33.7067C35.3333 33.34 35.0333 33.04 34.6667 33.04C34.3 33.04 34 33.34 34 33.7067V47.04C34 47.28 34.1267 47.5 34.3333 47.62L38.6667 50.0934V53.7867C37.3333 54.0934 36.3333 55.28 36.3333 56.7067C36.3333 58.36 37.68 59.7067 39.3333 59.7067C40.9867 59.7067 42.3333 58.36 42.3333 56.7067C42.3333 55.28 41.3333 54.0934 40 53.7867ZM39.3333 58.3734C38.8913 58.3734 38.4674 58.1978 38.1548 57.8852C37.8423 57.5727 37.6667 57.1487 37.6667 56.7067C37.6667 56.2647 37.8423 55.8408 38.1548 55.5282C38.4674 55.2156 38.8913 55.04 39.3333 55.04C39.7754 55.04 40.1993 55.2156 40.5118 55.5282C40.8244 55.8408 41 56.2647 41 56.7067C41 57.1487 40.8244 57.5727 40.5118 57.8852C40.1993 58.1978 39.7754 58.3734 39.3333 58.3734Z" fill="#F8FBFA"/>
<path d="M49.3327 53.787V49.567C49.3327 49.3136 49.186 49.0803 48.9593 48.967L39.9993 44.6203V33.707C39.9993 33.3403 39.6993 33.0403 39.3327 33.0403C38.966 33.0403 38.666 33.3403 38.666 33.707V45.0403C38.666 45.2936 38.8127 45.527 39.0393 45.6403L47.9993 49.987V53.787C46.666 54.0936 45.666 55.2803 45.666 56.707C45.666 58.3603 47.0127 59.707 48.666 59.707C50.3193 59.707 51.666 58.3603 51.666 56.707C51.666 55.2803 50.666 54.0936 49.3327 53.787ZM48.666 58.3736C48.224 58.3736 47.8001 58.198 47.4875 57.8855C47.1749 57.5729 46.9993 57.149 46.9993 56.707C46.9993 56.2649 47.1749 55.841 47.4875 55.5285C47.8001 55.2159 48.224 55.0403 48.666 55.0403C49.108 55.0403 49.532 55.2159 49.8445 55.5285C50.1571 55.841 50.3327 56.2649 50.3327 56.707C50.3327 57.149 50.1571 57.5729 49.8445 57.8855C49.532 58.198 49.108 58.3736 48.666 58.3736ZM20.666 19.707C21.766 19.707 22.666 18.807 22.666 17.707V15.707C22.666 14.607 21.766 13.707 20.666 13.707C19.566 13.707 18.666 14.607 18.666 15.707V17.707C18.666 18.807 19.566 19.707 20.666 19.707ZM19.9993 15.707C19.9993 15.3403 20.2993 15.0403 20.666 15.0403C21.0327 15.0403 21.3327 15.3403 21.3327 15.707V17.707C21.3327 18.0736 21.0327 18.3736 20.666 18.3736C20.2993 18.3736 19.9993 18.0736 19.9993 17.707V15.707ZM18.666 25.0403C18.666 26.1403 19.566 27.0403 20.666 27.0403C21.766 27.0403 22.666 26.1403 22.666 25.0403V23.0403C22.666 21.9403 21.766 21.0403 20.666 21.0403C19.566 21.0403 18.666 21.9403 18.666 23.0403V25.0403ZM19.9993 23.0403C19.9993 22.6736 20.2993 22.3736 20.666 22.3736C21.0327 22.3736 21.3327 22.6736 21.3327 23.0403V25.0403C21.3327 25.407 21.0327 25.707 20.666 25.707C20.2993 25.707 19.9993 25.407 19.9993 25.0403V23.0403ZM27.9993 23.0403V25.0403C27.9993 26.1403 28.8993 27.0403 29.9993 27.0403C31.0993 27.0403 31.9993 26.1403 31.9993 25.0403V23.0403C31.9993 21.9403 31.0993 21.0403 29.9993 21.0403C28.8993 21.0403 27.9993 21.9403 27.9993 23.0403ZM30.666 23.0403V25.0403C30.666 25.407 30.366 25.707 29.9993 25.707C29.6327 25.707 29.3327 25.407 29.3327 25.0403V23.0403C29.3327 22.6736 29.6327 22.3736 29.9993 22.3736C30.366 22.3736 30.666 22.6736 30.666 23.0403ZM37.3327 23.0403V25.0403C37.3327 26.1403 38.2327 27.0403 39.3327 27.0403C40.4327 27.0403 41.3327 26.1403 41.3327 25.0403V23.0403C41.3327 21.9403 40.4327 21.0403 39.3327 21.0403C38.2327 21.0403 37.3327 21.9403 37.3327 23.0403ZM39.9993 23.0403V25.0403C39.9993 25.407 39.6993 25.707 39.3327 25.707C38.966 25.707 38.666 25.407 38.666 25.0403V23.0403C38.666 22.6736 38.966 22.3736 39.3327 22.3736C39.6993 22.3736 39.9993 22.6736 39.9993 23.0403ZM27.3327 13.707C26.2327 13.707 25.3327 14.607 25.3327 15.707V17.707C25.3327 18.807 26.2327 19.707 27.3327 19.707C28.4327 19.707 29.3327 18.807 29.3327 17.707V15.707C29.3327 14.607 28.4327 13.707 27.3327 13.707ZM27.9993 17.707C27.9993 18.0736 27.6993 18.3736 27.3327 18.3736C26.966 18.3736 26.666 18.0736 26.666 17.707V15.707C26.666 15.3403 26.966 15.0403 27.3327 15.0403C27.6993 15.0403 27.9993 15.3403 27.9993 15.707V17.707ZM37.3327 13.707C36.2327 13.707 35.3327 14.607 35.3327 15.707V17.707C35.3327 18.807 36.2327 19.707 37.3327 19.707C38.4327 19.707 39.3327 18.807 39.3327 17.707V15.707C39.3327 14.607 38.4327 13.707 37.3327 13.707ZM37.9993 17.707C37.9993 18.0736 37.6993 18.3736 37.3327 18.3736C36.966 18.3736 36.666 18.0736 36.666 17.707V15.707C36.666 15.3403 36.966 15.0403 37.3327 15.0403C37.6993 15.0403 37.9993 15.3403 37.9993 15.707V17.707ZM23.9993 19.7336C24.366 19.7336 24.666 19.4336 24.666 19.067V14.3736C24.666 14.007 24.366 13.707 23.9993 13.707C23.6327 13.707 23.3327 14.007 23.3327 14.3736V19.067C23.3327 19.4336 23.6327 19.7336 23.9993 19.7336ZM23.3327 26.3736C23.3327 26.7403 23.6327 27.0403 23.9993 27.0403C24.366 27.0403 24.666 26.7403 24.666 26.3736V21.6803C24.666 21.3136 24.366 21.0136 23.9993 21.0136C23.6327 21.0136 23.3327 21.3136 23.3327 21.6803V26.3736ZM27.3327 26.4003V21.707C27.3327 21.3403 27.0327 21.0403 26.666 21.0403C26.2993 21.0403 25.9993 21.3403 25.9993 21.707V26.4003C25.9993 26.767 26.2993 27.067 26.666 27.067C27.0327 27.067 27.3327 26.767 27.3327 26.4003ZM33.9993 21.6803C33.9993 21.3136 33.6993 21.0136 33.3327 21.0136C32.966 21.0136 32.666 21.3136 32.666 21.6803V26.3736C32.666 26.7403 32.966 27.0403 33.3327 27.0403C33.6993 27.0403 33.9993 26.7403 33.9993 26.3736V21.6803ZM35.3327 26.4003C35.3327 26.767 35.6327 27.067 35.9993 27.067C36.366 27.067 36.666 26.767 36.666 26.4003V21.707C36.666 21.3403 36.366 21.0403 35.9993 21.0403C35.6327 21.0403 35.3327 21.3403 35.3327 21.707V26.4003ZM31.3327 19.067V14.3736C31.3327 14.007 31.0327 13.707 30.666 13.707C30.2993 13.707 29.9993 14.007 29.9993 14.3736V19.067C29.9993 19.4336 30.2993 19.7336 30.666 19.7336C31.0327 19.7336 31.3327 19.4336 31.3327 19.067ZM41.3327 19.067V14.3736C41.3327 14.007 41.0327 13.707 40.666 13.707C40.2993 13.707 39.9993 14.007 39.9993 14.3736V19.067C39.9993 19.4336 40.2993 19.7336 40.666 19.7336C41.0327 19.7336 41.3327 19.4336 41.3327 19.067ZM33.3327 19.7336C33.6993 19.7336 33.9993 19.4336 33.9993 19.067V14.3736C33.9993 14.007 33.6993 13.707 33.3327 13.707C32.966 13.707 32.666 14.007 32.666 14.3736V19.067C32.666 19.4336 32.966 19.7336 33.3327 19.7336Z" fill="#F8FBFA"/>
</g>
</svg>
