<svg width="16" height="17" viewBox="0 0 16 17" fill="none" xmlns="http://www.w3.org/2000/svg">
<g clip-path="url(#clip0_106_802)">
<path fill-rule="evenodd" clip-rule="evenodd" d="M8.17706 3.14771C5.93546 3.14771 4.11292 4.98651 4.11292 7.2546C4.11292 8.02287 4.45129 8.97599 4.94381 9.9267C6.02818 12.0202 7.83447 14.1287 7.83447 14.1287C7.91997 14.2287 8.0452 14.2865 8.17706 14.2865C8.30892 14.2865 8.43416 14.2287 8.51965 14.1287C8.51965 14.1287 10.3259 12.0202 11.4103 9.9267C11.9028 8.97599 12.2412 8.02287 12.2412 7.2546C12.2412 4.98651 10.4187 3.14771 8.17706 3.14771ZM8.17706 5.55609C7.26308 5.55609 6.5213 6.29787 6.5213 7.21185C6.5213 8.12583 7.26308 8.86761 8.17706 8.86761C9.09104 8.86761 9.83282 8.12583 9.83282 7.21185C9.83282 6.29787 9.09104 5.55609 8.17706 5.55609Z" fill="#FFFCFC"/>
<path fill-rule="evenodd" clip-rule="evenodd" d="M11.0567 12.8573C11.5462 13.0042 11.9496 13.186 12.2284 13.3992C12.409 13.5364 12.5415 13.6707 12.5415 13.8345C12.5415 13.9308 12.4867 14.0181 12.4096 14.1054C12.282 14.2493 12.0923 14.3788 11.8575 14.4992C11.0278 14.9237 9.68635 15.1892 8.1763 15.1892C6.66624 15.1892 5.32477 14.9237 4.49508 14.4992C4.26027 14.3788 4.07061 14.2493 3.94296 14.1054C3.86589 14.0181 3.8111 13.9308 3.8111 13.8345C3.8111 13.6707 3.94356 13.5364 4.12419 13.3992C4.40296 13.186 4.80637 13.0042 5.29587 12.8573C5.5343 12.7856 5.66977 12.5333 5.59812 12.2949C5.52647 12.0559 5.27419 11.9204 5.03576 11.9921C4.29037 12.2166 3.71115 12.5243 3.36314 12.8645C3.05728 13.1625 2.90796 13.4961 2.90796 13.8345C2.90796 14.2571 3.14699 14.6786 3.63288 15.0302C4.48545 15.6468 6.19781 16.0923 8.1763 16.0923C10.1548 16.0923 11.8671 15.6468 12.7197 15.0302C13.2056 14.6786 13.4446 14.2571 13.4446 13.8345C13.4446 13.4961 13.2953 13.1625 12.9894 12.8645C12.6414 12.5243 12.0622 12.2166 11.3168 11.9921C11.0784 11.9204 10.8261 12.0559 10.7545 12.2949C10.6828 12.5333 10.8183 12.7856 11.0567 12.8573Z" fill="#FFFCFC"/>
</g>
<defs>
<clipPath id="clip0_106_802">
<rect width="14.4503" height="15.8953" fill="white" transform="translate(0.902161 0.782227)"/>
</clipPath>
</defs>
</svg>
