<svg width="53" height="52" viewBox="0 0 53 52" fill="none" xmlns="http://www.w3.org/2000/svg">
<path d="M51.5592 27.7787C52.4751 26.8687 53.0001 25.609 53.0001 24.3224C53.0001 23.0358 52.4751 21.7761 51.5592 20.8661L44.5593 13.9106L36.6131 21.8063L39.9894 25.1611L25.9895 39.0719L22.6132 35.7171L14.667 43.6127L21.667 50.5681C22.5828 51.4781 23.8506 51.9998 25.1454 51.9998C26.4402 51.9998 27.708 51.4781 28.6239 50.5681L30.5712 48.6332C33.0401 50.8021 36.1716 51.9998 39.4948 51.9998C46.9413 51.9998 53.0001 45.9795 53.0001 38.5805C53.0001 35.2776 51.7947 32.1652 49.6119 29.7136L51.5592 27.7787ZM39.0002 21.8063L44.5593 16.2825L45.898 17.6127L40.3389 23.1365L39.0002 21.8063ZM17.0541 43.6127L22.6132 38.089L23.9519 39.4192L18.3928 44.9429L17.0541 43.6127ZM29.3481 47.4758L27.4303 49.3822C26.8285 49.9802 25.9962 50.3224 25.1454 50.3224C24.2946 50.3224 23.4623 49.9802 22.8605 49.3822L19.5863 46.1288L25.1454 40.6051L25.9895 41.4438L42.3765 25.1611L41.5324 24.3224L47.0915 18.7986L50.3657 22.052C50.9675 22.65 51.3119 23.477 51.3119 24.3224C51.3119 25.1678 50.9675 25.9948 50.3657 26.5928L48.4479 28.4983L29.3481 47.4758ZM51.3119 38.5805C51.3119 45.0553 46.0111 50.3224 39.4948 50.3224C36.6215 50.3224 33.9044 49.3101 31.7563 47.4557L48.4268 30.8912C50.2931 33.0248 51.3119 35.7246 51.3119 38.5805Z" fill="#FCFCFC"/>
<path d="M22.6131 35.2258V32.1025C23.6927 31.7921 24.7334 31.3636 25.7193 30.8226L27.9426 33.0326L33.9111 27.1021L31.687 24.8929C32.2322 23.9133 32.6627 22.88 32.975 21.8065H36.1184V13.4194H32.975C32.6627 12.3466 32.2314 11.3125 31.687 10.3329L33.9111 8.12374L27.9426 2.19323L25.7193 4.40323C24.7334 3.86142 23.6935 3.43368 22.6131 3.12335V0H14.1723V3.12335C13.0927 3.43368 12.052 3.86226 11.0661 4.40323L8.84276 2.19323L2.87426 8.12374L5.09842 10.3329C4.55314 11.3125 4.12266 12.3458 3.81035 13.4194H0.666992V21.8065H3.81035C4.12266 22.8792 4.55398 23.9133 5.09842 24.8929L2.87426 27.1021L8.84276 33.0326L11.0661 30.8226C12.052 31.3644 13.0919 31.7921 14.1723 32.1025V35.2258H22.6131ZM11.3691 29.0579L10.8019 28.7141L8.8436 30.6607L5.26217 27.1021L7.22128 25.1563L6.87521 24.5926C6.14508 23.405 5.60824 22.1193 5.27989 20.7715L5.12374 20.129H2.35515V15.0968H5.12374L5.27989 14.4543C5.60824 13.1074 6.14423 11.8208 6.87521 10.6332L7.22128 10.0695L5.26217 8.12374L8.8436 4.5651L10.8019 6.51174L11.3691 6.16787C12.5643 5.44239 13.8583 4.90897 15.2147 4.58271L15.8604 4.42839V1.67742H20.9249V4.42839L21.5715 4.58355C22.9271 4.90981 24.2219 5.44239 25.4171 6.16871L25.9844 6.51258L27.9426 4.56594L31.5241 8.12458L29.5649 10.0704L29.911 10.634C30.6411 11.8216 31.178 13.1074 31.5063 14.4552L31.6616 15.0968H34.4302V20.129H31.6616L31.5055 20.7715C31.1771 22.1185 30.6411 23.405 29.9102 24.5926L29.5641 25.1563L31.5232 27.1021L27.9418 30.6607L25.9835 28.7141L25.4163 29.0579C24.2211 29.7834 22.9271 30.3168 21.5707 30.6431L20.9249 30.7974V33.5484H15.8604V30.7974L15.2139 30.6423C13.8583 30.316 12.5643 29.7834 11.3691 29.0579Z" fill="#FCFCFC"/>
<path d="M27.6777 17.613C27.6777 12.5262 23.5121 8.38721 18.3928 8.38721C13.2734 8.38721 9.10791 12.5262 9.10791 17.613C9.10791 22.6998 13.2734 26.8388 18.3928 26.8388C23.5121 26.8388 27.6777 22.6998 27.6777 17.613ZM10.7961 17.613C10.7961 13.4505 14.2036 10.0646 18.3928 10.0646C22.582 10.0646 25.9895 13.4505 25.9895 17.613C25.9895 21.7755 22.582 25.1614 18.3928 25.1614C14.2036 25.1614 10.7961 21.7755 10.7961 17.613Z" fill="#FCFCFC"/>
<path d="M26.2365 36.6578L27.4302 35.4717L25.7423 33.7945L24.5486 34.9806L26.2365 36.6578Z" fill="#FCFCFC"/>
<path d="M34.6769 24.9161L36.3647 26.5933L37.5584 25.4072L35.8706 23.73L34.6769 24.9161Z" fill="#FCFCFC"/>
</svg>
