<svg width="16" height="15" viewBox="0 0 16 15" fill="none" xmlns="http://www.w3.org/2000/svg">
<path fill-rule="evenodd" clip-rule="evenodd" d="M10.0833 7.75171L9.27793 8.5574C8.97134 8.86366 8.55558 9.03591 8.12218 9.03591C7.68878 9.03591 7.27302 8.86366 6.96642 8.5574L6.16107 7.75171L1.81622 12.0966C1.94696 12.159 2.09111 12.1923 2.23884 12.1923H14.0055C14.1532 12.1923 14.2974 12.159 14.4281 12.0966L10.0833 7.75171Z" fill="#FFFCFC"/>
<path fill-rule="evenodd" clip-rule="evenodd" d="M14.8915 2.94409C14.9539 3.07483 14.9872 3.21898 14.9872 3.36671V11.2112C14.9872 11.3589 14.9539 11.503 14.8915 11.6338L10.5466 7.28893L14.8915 2.94409Z" fill="#FFFCFC"/>
<path fill-rule="evenodd" clip-rule="evenodd" d="M1.3534 2.94409L5.69824 7.28893L1.3534 11.6338C1.29097 11.503 1.25763 11.3589 1.25763 11.2112C1.25763 9.20167 1.25763 5.37619 1.25763 3.36671C1.25763 3.21898 1.29097 3.07483 1.3534 2.94409Z" fill="#FFFCFC"/>
<path fill-rule="evenodd" clip-rule="evenodd" d="M14.4281 2.48322C14.2974 2.42079 14.1532 2.38745 14.0055 2.38745C11.2707 2.38745 4.97361 2.38745 2.23884 2.38745C2.09111 2.38745 1.94696 2.42079 1.81622 2.48322L7.42892 8.09559C7.61262 8.27961 7.86201 8.3829 8.12218 8.3829C8.38235 8.3829 8.63174 8.27961 8.81543 8.09559L14.4281 2.48322Z" fill="#FFFCFC"/>
</svg>
