<svg width="60" height="60" viewBox="0 0 60 60" fill="none" xmlns="http://www.w3.org/2000/svg">
<path d="M17.1582 11.9951C23.0563 9.33445 27.4156 5.90004 29.7645 2.06332C29.8004 2.00484 29.8517 1.97519 29.9172 1.97519C29.9827 1.97519 30.034 2.00484 30.0699 2.06332C31.8056 4.8982 34.5917 7.48195 38.3512 9.74285C42.029 11.9547 46.4527 13.7481 51.4989 15.0729C51.6196 15.1046 51.7061 15.2074 51.7144 15.3288C51.7813 16.3133 51.8152 17.3489 51.8152 18.4071C51.8152 22.3309 50.784 26.7326 48.7501 31.49C48.6587 31.7037 48.656 31.945 48.7426 32.1607C48.8291 32.3764 48.9977 32.5489 49.2114 32.6403C49.5264 32.765 50.0931 32.7176 50.3617 32.179C52.4892 27.2025 53.5679 22.569 53.5679 18.4071C53.5679 17.3095 53.5326 16.2338 53.463 15.2101C53.4038 14.337 52.7934 13.6006 51.944 13.3779C42.1817 10.8146 34.7538 6.35719 31.5645 1.1482C31.2097 0.568594 30.5938 0.222656 29.9171 0.222656C29.2403 0.222656 28.6245 0.568594 28.2697 1.1482C26.1051 4.68375 22.0136 7.88203 16.4374 10.3974C16.2255 10.493 16.0603 10.6689 15.9781 10.8863C15.8959 11.1036 15.9033 11.3448 15.9988 11.5567C16.0946 11.7684 16.2705 11.9335 16.4878 12.0157C16.7052 12.0979 16.9463 12.0905 17.1582 11.9951Z" fill="#FBFBFB"/>
<path d="M38.8541 35.9312V28.8578C38.8541 27.2704 37.6301 25.9643 36.0763 25.8318V24.4888C36.0763 21.0926 33.3134 18.3296 29.9171 18.3296C26.5207 18.3296 23.7578 21.0925 23.7578 24.4888V25.8319C22.204 25.9643 20.98 27.2704 20.98 28.8579V35.9314C20.98 37.6064 22.3428 38.9692 24.0178 38.9692H35.8163C37.4915 38.9691 38.8541 37.6064 38.8541 35.9312ZM29.9172 20.0822C32.3469 20.0822 34.3238 22.0591 34.3238 24.4888V25.8201H25.5104V24.4888C25.5104 22.0589 27.4873 20.0822 29.9172 20.0822ZM22.7326 35.9312V28.8578C22.7326 28.1492 23.3092 27.5726 24.0178 27.5726H35.8163C36.5249 27.5726 37.1015 28.1492 37.1015 28.8578V35.9312C37.1015 36.6399 36.5249 37.2164 35.8163 37.2164H24.0178C23.3092 37.2166 22.7326 36.64 22.7326 35.9312Z" fill="#FBFBFB"/>
<path d="M29.8504 30.1785C28.9632 30.2346 28.2383 30.9496 28.1709 31.836C28.1108 32.6277 28.5628 33.3211 29.2299 33.621V34.7501C29.2299 34.8004 29.2398 34.8503 29.2591 34.8968C29.2783 34.9433 29.3065 34.9856 29.3421 35.0212C29.3777 35.0568 29.42 35.085 29.4665 35.1043C29.513 35.1235 29.5629 35.1334 29.6132 35.1334H30.3221C30.3724 35.1334 30.4223 35.1235 30.4688 35.1043C30.5153 35.085 30.5576 35.0568 30.5932 35.0212C30.6288 34.9856 30.657 34.9433 30.6763 34.8968C30.6955 34.8503 30.7054 34.8004 30.7054 34.7501V33.621C31.3327 33.339 31.7698 32.7092 31.7698 31.9769C31.7698 30.9428 30.8989 30.1122 29.8504 30.1785Z" fill="#FBFBFB"/>
<path d="M57.446 42.7512C56.4354 42.7512 55.5601 43.3413 55.1463 44.1952H43.6638C44.1782 43.4348 44.6811 42.6667 45.1721 41.8911H51.1498C51.5711 41.8911 51.967 41.7271 52.2652 41.4292L54.0507 39.6435H55.0991C55.4904 40.5528 56.395 41.1912 57.446 41.1912C58.8543 41.1912 60 40.0454 60 38.6372C60 37.2291 58.8543 36.0833 57.446 36.0833C56.2975 36.0833 55.3237 36.8456 55.0037 37.8908H53.9782C53.5568 37.8908 53.1608 38.0549 52.8628 38.3527L51.0771 40.1385H46.2517C47.0541 38.799 47.8256 37.4237 48.5477 36.0216C48.6004 35.9193 48.6324 35.8076 48.642 35.6929C48.6515 35.5782 48.6383 35.4628 48.6032 35.3532C48.5681 35.2436 48.5118 35.1419 48.4374 35.0541C48.3631 34.9663 48.2721 34.894 48.1698 34.8413C48.0675 34.7886 47.9558 34.7566 47.8411 34.747C47.7264 34.7375 47.611 34.7507 47.5014 34.7858C47.3918 34.8209 47.2902 34.8772 47.2023 34.9516C47.1145 35.0259 47.0422 35.1169 46.9895 35.2192C41.4971 45.8844 32.8228 55.2483 30.2951 57.8643C30.195 57.9679 30.0607 58.0249 29.917 58.0249C29.7734 58.0249 29.6391 57.9679 29.539 57.8643C27.4227 55.6742 21.9745 49.7863 17.1034 42.431C11.0754 33.3288 8.01891 25.246 8.01891 18.4069C8.01891 17.3487 8.05277 16.3131 8.11969 15.3283C8.12789 15.2071 8.21449 15.1044 8.3352 15.0727C9.96762 14.6441 11.5625 14.1567 13.0755 13.6245C13.2937 13.5465 13.4722 13.3854 13.5719 13.1762C13.6716 12.967 13.6843 12.7269 13.6074 12.5083C13.5305 12.2898 13.3702 12.1106 13.1615 12.0099C12.9528 11.9092 12.7128 11.8953 12.4938 11.9712C11.0256 12.4879 9.4766 12.9611 7.89012 13.3776C7.04051 13.6006 6.43008 14.337 6.37113 15.2097C6.30152 16.2336 6.26625 17.3093 6.26625 18.4068C6.26625 24.7539 8.7266 32.0516 13.5837 40.1384H8.75719L6.97148 38.3527C6.82533 38.2058 6.65149 38.0893 6.46004 38.0101C6.26858 37.9308 6.06331 37.8903 5.85609 37.8908H4.99617C4.67613 36.8456 3.70242 36.0833 2.55387 36.0833C1.14574 36.0832 0 37.229 0 38.6371C0 40.0453 1.14574 41.1911 2.55398 41.1911C3.60492 41.1911 4.50949 40.5526 4.9009 39.6434H5.78367L7.56926 41.4291C7.71541 41.576 7.88924 41.6925 8.08069 41.7718C8.27215 41.851 8.47742 41.8916 8.68465 41.891H14.6665C14.9869 42.3967 15.3123 42.8993 15.6425 43.3987C15.8191 43.665 15.9971 43.9305 16.1764 44.1951H4.85367C4.43988 43.3412 3.56461 42.7511 2.55398 42.7511C1.14574 42.7512 0 43.8968 0 45.3051C0 46.7132 1.14574 47.8589 2.55398 47.8589C3.74027 47.8589 4.74012 47.0458 5.02582 45.9477H17.3917C17.9524 46.738 18.5239 47.5206 19.106 48.2952H12.1934C11.835 47.3173 10.8949 46.6176 9.79441 46.6176C8.38617 46.6176 7.24043 47.7633 7.24043 49.1715C7.24043 50.5798 8.38617 51.7255 9.79441 51.7255C10.8949 51.7255 11.835 51.0258 12.1934 50.0479H20.4496C21.022 50.7796 21.6029 51.5046 22.1924 52.2226H18.4025C18.1953 52.2221 17.99 52.2626 17.7985 52.3419C17.6071 52.4212 17.4332 52.5377 17.287 52.6846L15.5014 54.4703H14.4646C14.1062 53.4924 13.1661 52.7926 12.0655 52.7926C10.6573 52.7926 9.51152 53.9384 9.51152 55.3466C9.51152 56.7547 10.6573 57.9005 12.0655 57.9005C13.166 57.9005 14.1062 57.2008 14.4646 56.2229H15.574C15.7812 56.2235 15.9865 56.1829 16.178 56.1036C16.3695 56.0243 16.5433 55.9078 16.6895 55.7609L18.475 53.9753H23.6591C25.6453 56.3043 27.3079 58.0773 28.2787 59.0822C28.7122 59.5307 29.2941 59.7776 29.9171 59.7776C30.5402 59.7776 31.1221 59.5307 31.5555 59.0822C32.648 57.9517 34.2859 56.1978 36.1856 53.9729C36.2014 53.9738 36.217 53.9753 36.2331 53.9753H41.3593L43.1452 55.7612C43.2913 55.9081 43.4651 56.0245 43.6565 56.1037C43.8479 56.183 44.0531 56.2235 44.2603 56.2229H45.3697C45.7281 57.2008 46.6683 57.9005 47.7688 57.9005C49.177 57.9005 50.3228 56.7547 50.3228 55.3466C50.3228 53.9384 49.177 52.7926 47.7688 52.7926C46.6683 52.7926 45.7281 53.4924 45.3697 54.4703H44.3329L42.5469 52.6842C42.4008 52.5374 42.227 52.421 42.0355 52.3418C41.8441 52.2626 41.6389 52.2221 41.4318 52.2226H37.6514C38.2412 51.5047 38.8224 50.7797 39.3949 50.0479H47.6743C48.0327 51.0258 48.9728 51.7255 50.0733 51.7255C51.4815 51.7255 52.6273 50.5798 52.6273 49.1715C52.6273 47.7633 51.4815 46.6176 50.0733 46.6176C48.9728 46.6176 48.0327 47.3173 47.6743 48.2952H40.7384C41.3198 47.5206 41.8906 46.738 42.4506 45.9477H54.9742C55.2599 47.0458 56.2597 47.8589 57.446 47.8589C58.8543 47.8589 60 46.7132 60 45.3051C60 43.8968 58.8543 42.7512 57.446 42.7512ZM57.446 37.8359C57.8878 37.8359 58.2473 38.1953 58.2473 38.6371C58.2473 39.0789 57.8878 39.4384 57.446 39.4384C57.0042 39.4384 56.6448 39.0789 56.6448 38.6371C56.6448 38.1953 57.0042 37.8359 57.446 37.8359ZM2.55398 39.4384C2.11207 39.4384 1.75266 39.0789 1.75266 38.6371C1.75266 38.1953 2.11207 37.8359 2.55398 37.8359C2.99578 37.8359 3.3552 38.1953 3.3552 38.6371C3.3552 39.0789 2.99578 39.4384 2.55398 39.4384ZM2.55398 46.1063C2.34155 46.1061 2.13787 46.0216 1.98764 45.8714C1.83741 45.7212 1.7529 45.5175 1.75266 45.3051C1.75287 45.0926 1.83737 44.8889 1.9876 44.7387C2.13783 44.5884 2.34153 44.5039 2.55398 44.5037C2.76642 44.504 2.97009 44.5885 3.12029 44.7387C3.2705 44.8889 3.35498 45.0926 3.3552 45.3051C3.35495 45.5175 3.27045 45.7211 3.12025 45.8713C2.97005 46.0215 2.7664 46.106 2.55398 46.1063ZM9.79441 49.9729C9.3525 49.9729 8.99309 49.6135 8.99309 49.1715C8.99309 48.7296 9.3525 48.3702 9.79441 48.3702C10.2362 48.3702 10.5956 48.7296 10.5956 49.1715C10.5956 49.6135 10.2362 49.9729 9.79441 49.9729ZM12.0657 56.1478C11.6238 56.1478 11.2644 55.7884 11.2644 55.3466C11.2644 54.9048 11.6238 54.5453 12.0657 54.5453C12.5077 54.5453 12.8671 54.9048 12.8671 55.3466C12.8671 55.7884 12.5077 56.1478 12.0657 56.1478ZM47.7687 54.5453C48.2106 54.5453 48.57 54.9048 48.57 55.3466C48.57 55.7884 48.2106 56.1478 47.7687 56.1478C47.3268 56.1478 46.9673 55.7884 46.9673 55.3466C46.9673 54.9048 47.3268 54.5453 47.7687 54.5453ZM50.0734 48.3702C50.5153 48.3702 50.8747 48.7296 50.8747 49.1715C50.8747 49.6135 50.5153 49.9729 50.0734 49.9729C49.6316 49.9729 49.2722 49.6135 49.2722 49.1715C49.2722 48.7296 49.6316 48.3702 50.0734 48.3702ZM57.446 46.1063C57.2336 46.106 57.0299 46.0215 56.8797 45.8713C56.7295 45.7211 56.6451 45.5175 56.6448 45.3051C56.6448 44.8631 57.0042 44.5037 57.446 44.5037C57.8878 44.5037 58.2473 44.8631 58.2473 45.3051C58.2473 45.7469 57.8878 46.1063 57.446 46.1063Z" fill="#FBFBFB"/>
<path d="M31.4085 52.077C31.7634 51.2211 31.3572 50.2396 30.5013 49.8847C29.6454 49.5298 28.6639 49.936 28.3091 50.7919C27.9542 51.6478 28.3603 52.6293 29.2162 52.9842C30.0721 53.339 31.0536 52.9329 31.4085 52.077Z" fill="#FBFBFB"/>
<path d="M30.1087 10.458C31.0232 10.3091 31.6438 9.44706 31.4949 8.53263C31.346 7.6182 30.4839 6.99764 29.5694 7.14658C28.6549 7.29551 28.0343 8.15754 28.1832 9.07197C28.3322 9.9864 29.1942 10.607 30.1087 10.458Z" fill="#FBFBFB"/>
<path d="M12.428 17.0835C11.5015 17.0835 10.7505 17.8345 10.7505 18.7611C10.7505 19.6876 11.5015 20.4386 12.428 20.4386C13.3545 20.4386 14.1057 19.6876 14.1057 18.7611C14.1056 17.8346 13.3545 17.0835 12.428 17.0835ZM47.4062 17.0835C46.4797 17.0835 45.7285 17.8345 45.7285 18.7611C45.7285 19.6876 46.4795 20.4386 47.4062 20.4386C48.3326 20.4386 49.0837 19.6876 49.0837 18.7611C49.0837 17.8346 48.3326 17.0835 47.4062 17.0835Z" fill="#FBFBFB"/>
</svg>
