<svg width="16" height="15" viewBox="0 0 16 15" fill="none" xmlns="http://www.w3.org/2000/svg">
<g clip-path="url(#clip0_106_808)">
<path d="M11.8881 9.84247C11.416 9.37639 10.8267 9.37639 10.3576 9.84247C9.99976 10.1973 9.64193 10.5521 9.29011 10.913C9.19389 11.0122 9.1127 11.0332 8.99543 10.9671C8.76389 10.8408 8.51732 10.7385 8.2948 10.6002C7.2574 9.94772 6.38839 9.10877 5.6186 8.16458C5.23672 7.6955 4.89693 7.19333 4.65938 6.62802C4.61127 6.51376 4.62029 6.43858 4.7135 6.34537C5.07133 5.99956 5.42014 5.64474 5.77196 5.28992C6.26209 4.79678 6.26209 4.21944 5.76895 3.72329C5.4893 3.44063 5.20965 3.16399 4.93001 2.88134C4.64134 2.59267 4.35567 2.30099 4.064 2.01533C3.5919 1.55526 3.00254 1.55526 2.53345 2.01834C2.17261 2.37316 1.82681 2.737 1.45996 3.08581C1.12017 3.40756 0.948777 3.80147 0.912694 4.26154C0.855561 5.01027 1.03899 5.71691 1.29759 6.40551C1.82681 7.83081 2.63268 9.09674 3.60995 10.2574C4.93001 11.8271 6.50566 13.069 8.34893 13.965C9.17885 14.368 10.0388 14.6777 10.974 14.7288C11.6175 14.7649 12.1768 14.6025 12.6248 14.1003C12.9316 13.7575 13.2774 13.4448 13.6021 13.1171C14.0832 12.6299 14.0862 12.0406 13.6081 11.5595C13.0368 10.9851 12.4625 10.4138 11.8881 9.84247Z" fill="#FFFCFC"/>
<path d="M11.3141 7.44657L12.4237 7.25713C12.2493 6.23776 11.7682 5.31462 11.0375 4.58092C10.2647 3.80813 9.28742 3.321 8.21093 3.17065L8.05457 4.28624C8.8875 4.40351 9.64525 4.77938 10.2436 5.37777C10.8089 5.94308 11.1788 6.65874 11.3141 7.44657Z" fill="#FFFCFC"/>
<path d="M13.0502 2.62336C11.7693 1.34239 10.1485 0.533514 8.35937 0.283936L8.203 1.39952C9.74859 1.61602 11.1498 2.31665 12.2564 3.42021C13.3058 4.46964 13.9944 5.79571 14.244 7.25409L15.3536 7.06465C15.0619 5.37474 14.2651 3.84118 13.0502 2.62336Z" fill="#FFFCFC"/>
</g>
<defs>
<clipPath id="clip0_106_808">
<rect width="14.4503" height="14.4503" fill="white" transform="translate(0.902161 0.284912)"/>
</clipPath>
</defs>
</svg>
