<svg width="60" height="54" viewBox="0 0 60 54" fill="none" xmlns="http://www.w3.org/2000/svg">
<path fill-rule="evenodd" clip-rule="evenodd" d="M46.0105 33.8718C45.7293 33.8718 45.4482 33.7664 45.2724 33.4852L43.1634 30.5326L40.949 33.5203C40.246 34.4694 38.8049 33.3797 39.5079 32.4307L42.0738 28.9861L39.5782 25.5063C38.8752 24.5572 40.3515 23.4676 41.0545 24.4518L43.1986 27.4746L45.3779 24.5572C46.0808 23.6082 47.522 24.6978 46.819 25.6469L44.3234 29.0212L46.7487 32.4307C47.1705 33.0282 46.7135 33.8718 46.0105 33.8718ZM47.3814 12.5362H12.5835C11.4235 12.5362 11.4235 10.7435 12.5835 10.7435H47.3814C48.5765 10.7435 48.5765 12.5362 47.3814 12.5362ZM47.3814 17.6328H12.5835C11.4235 17.6328 11.4235 15.805 12.5835 15.805H47.3814C48.5765 15.805 48.5765 17.6328 47.3814 17.6328ZM53.9543 42.8349V10.849C53.9543 5.92807 51.1072 1.95619 47.6274 1.95619H12.3726C8.85765 1.95619 6.04569 5.92807 6.04569 10.849V42.8349H24.6749H24.71H24.7452H24.7803H24.8155H24.8506L24.8858 42.8701H24.9209H24.9561L24.9912 42.9052H25.0264H25.0615V42.9404H25.0967L25.1318 42.9755H25.167L25.2021 43.0107L25.2373 43.0458H25.2724V43.081H25.3076C25.3076 43.1161 25.5536 43.4676 25.5536 43.7488V46.4553H34.4112V43.7488C34.4112 43.081 34.7627 43.0458 35.1494 42.8349H35.29H35.3251H35.3603H53.9543ZM4.21793 42.8349V10.849C4.21793 4.94388 7.87346 0.128418 12.3726 0.128418H47.6274C52.1265 0.128418 55.7821 4.94388 55.7821 10.849V42.8349H59.0861C59.5782 42.8349 60 43.2216 60 43.7488C60 49.3024 55.4657 53.8367 49.877 53.8367H10.123C4.53427 53.8367 0 49.3024 0 43.7488C0 43.2216 0.421793 42.8349 0.913884 42.8349H4.21793ZM23.761 44.6275H1.86292C2.31986 48.7752 5.8348 52.0441 10.123 52.0441H49.877C54.1301 52.0441 57.6801 48.7752 58.1371 44.6275H36.239V47.3692C36.239 47.8613 35.8172 48.2831 35.3251 48.2831H24.6397C24.1476 48.2831 23.761 47.8964 23.761 47.3692V44.6275ZM25.3427 35.8402C24.7452 35.8402 24.2882 35.2778 24.464 34.6803L27.8032 22.1671C28.1195 21.0423 29.877 21.5344 29.5606 22.6592L26.2214 35.1724C26.116 35.559 25.7293 35.8402 25.3427 35.8402ZM34.2706 33.907C32.2671 33.907 30.7557 32.6064 30.8612 30.5326V24.9439C30.8612 23.784 32.6538 23.784 32.6538 24.9439C32.6538 26.0687 32.7241 29.8648 32.6538 30.6732C32.478 32.5713 36.0281 32.5713 35.8524 30.6732C35.7821 29.8999 35.8524 26.0335 35.8524 24.9439C35.8524 23.784 37.6801 23.784 37.6801 24.9439V30.5326C37.7504 32.6064 36.239 33.907 34.2706 33.907ZM16.4148 33.3094C14.4112 33.3094 12.8998 32.0089 13.0053 29.9351V24.3463C13.0053 23.1864 14.7979 23.1864 14.7979 24.3463C14.7979 25.5063 14.8682 29.197 14.7979 30.0757C14.6573 31.9738 18.1722 31.9738 17.9965 30.0757C17.9262 29.197 17.9965 25.5063 17.9965 24.3463C17.9965 23.1864 19.8243 23.1864 19.8243 24.3463V29.9351C19.8946 32.0089 18.3831 33.3094 16.4148 33.3094ZM22.4956 33.2743C22.0035 33.2743 21.5817 32.8876 21.5817 32.3604V24.3815C21.5817 23.1864 23.4095 23.1864 23.4095 24.3815V32.3604C23.4095 32.8876 22.9877 33.2743 22.4956 33.2743Z" fill="white"/>
</svg>
